<svg xmlns="http://www.w3.org/2000/svg" viewBox="0 0 198.83 64">
  <defs>
    <style>
      .a{fill:#13a8a7}.b{fill:#72ced5}.c{fill:#e9686c}
    </style>
  </defs>
  <path d="M54.03 35a1 1 0 0 0 0-2 1 1 0 0 0 0 2zM6.03 2a1 1 0 0 0 0-2 1 1 0 0 0 0 2zM24.03 20a1 1 0 1 0 1 1 1 1 0 0 0-1.01-1zM41.03 21a1 1 0 0 0-1-1 1 1 0 1 0 1 1zM32.03 5a1 1 0 0 0 0-2 1 1 0 0 0 0 2z" class="a"/>
  <path d="M34.75 10v2h11.33a3 3 0 0 0 2.85 2h5.06a1 1 0 0 0 1-1V9a1 1 0 0 0-1-1h-5.06a3 3 0 0 0-2.85 2zm13.17 1a1 1 0 0 1 1-1h4.05v2h-4.04a1 1 0 0 1-1.01-1zM22.22 12a9 9 0 1 0 0 18h6.11v2h-6.11a11 11 0 1 1 0-22h7.13v2zM48.93 37a5 5 0 0 0-5.06-5h-8.1v-2h8.07a7.05 7.05 0 0 1 7.09 7v10.67l-2-.92z" class="b"/>
  <path d="M20 21.13a4 4 0 0 0 4 4h4v15.34l2-.64V25.15h4v14.91l2 .93V25.15h4a4 4 0 0 0 0-8 4 4 0 0 0-2.62 1H35V6.66a4 4 0 1 0-6 0v11.45h-2.38a4 4 0 0 0-2.62-1 4 4 0 0 0-4 4.02zm14-17.1a2 2 0 1 1-2-2 2 2 0 0 1 2 1.99zm-3 10.06V7.9a3.57 3.57 0 0 0 2 0v6.18zm2 2v2h-2v-2zm-11 5a2 2 0 1 1 4 0 1 1 0 1 0 2 0 4 4 0 0 0-.14-1h8.28a4 4 0 0 0-.14 1 1 1 0 1 0 2 0 2 2 0 1 1 2 2H24a2 2 0 0 1-2-1.96zM59 6v1a1 1 0 1 0 2 0V6a1 1 0 0 0 0-2V3a1 1 0 0 0-2 0v1a1 1 0 0 0 0 2zM2 31v1a1 1 0 0 0 2 0v-1a1 1 0 0 0 0-2v-1a1 1 0 1 0-2 0v1a1 1 0 1 0 0 2z" class="a"/>
  <path d="M31.03 40.99L24.6 54.73v.06a1.21 1.21 0 0 0 0 .81v.06l3.49 7H1.84l8.48-15.08z" class="c"/>
  <path d="M32.3 40.65l2.26 1.04 15.91 7.35 8.1 3.73 4.46 9.82H29.26l-3.72-7.45 6.76-14.49z" class="c"/>
  <path fill="#d6484d" d="M0 63a.94.94 0 0 0 0 .13 1 1 0 0 0 0 .2 1.48 1.48 0 0 0 .19.32 1 1 0 0 0 .16.14.93.93 0 0 0 .09.08h.14a1 1 0 0 0 .34.07h62a1 1 0 0 0 .39-.09.94.94 0 0 0 .1-.07 1 1 0 0 0 .2-.15 4.48 4.48 0 0 0 .21-.32 1 1 0 0 0 0-.23.94.94 0 0 0 0-.14 6.88 6.88 0 0 0-.08-.39l-5-11a1 1 0 0 0-.08-.11.69.69 0 0 0-.3-.3.94.94 0 0 0-.11-.08l-7.42-3.42-2-.92-13-6-2-.92-1.58-.73a1 1 0 0 0-.14 0 1 1 0 0 0-.22-.05 1 1 0 0 0-.19 0 .94.94 0 0 0-.15 0l-1.7.54-2 .64-18.3 5.82a.94.94 0 0 0-.12.07.66.66 0 0 0-.35.29.94.94 0 0 0-.09.11l-9 16a1.74 1.74 0 0 0-.1.39s.11.1.11.12zm29.62-1l-3.51-7 6.37-13.66 2.12 1 15 6.92 7.65 3.47 4.2 9.25zM2.71 62l8-14.17 19.45-6.19-6 12.93v.05a1.14 1.14 0 0 0 0 .76v.06l3.28 6.55z"/>
  <path d="M76.84 13.73v19h18.78v2H76.84v19h-2.27v-42h24.06v2zM102.71 51.98a9 9 0 0 1-2.07-6.25 8.63 8.63 0 0 1 2-6.15q2-2.13 6.33-2.73l11.4-1.14v-3.1q0-3.72-1.56-5.55a5.31 5.31 0 0 0-4.26-1.83q-2.64 0-4.65.18t-7.53.84l-.18-2a67 67 0 0 1 11.34-1.08q4.62 0 6.81 2.31t2.19 7.11v17.3a2.11 2.11 0 0 0 1.31 1.59 8.43 8.43 0 0 0 3.18.93l-.18 1.86a9.41 9.41 0 0 1-3.69-.72 5.29 5.29 0 0 1-2.49-1.92 29.82 29.82 0 0 1-12.12 2.64 7.5 7.5 0 0 1-5.83-2.29zm16-1.5l1.68-.66V37.65l-11.17 1.08a7 7 0 0 0-4.77 1.83 6.81 6.81 0 0 0-1.47 4.77q0 7 5.64 7a28.79 28.79 0 0 0 10.08-1.85zM134.91 53.85l-1.26-.12V9.93h2v15.72a23.53 23.53 0 0 1 10.44-2.46 10.36 10.36 0 0 1 6.1 1.54 8.32 8.32 0 0 1 3.06 4.8 35.23 35.23 0 0 1 .9 9 29.08 29.08 0 0 1-1.23 9.66 7.82 7.82 0 0 1-4.32 4.65q-3.09 1.35-9 1.35a65.3 65.3 0 0 1-6.69-.34zm14.93-2.91a7.3 7.3 0 0 0 3.3-4.38 29.94 29.94 0 0 0 .9-8.31 33.34 33.34 0 0 0-.72-7.89 6.77 6.77 0 0 0-2.46-4 8.57 8.57 0 0 0-5-1.23 27.29 27.29 0 0 0-10.14 2.4v24.45q1.68.12 2.28.12 3.84.24 4.74.24 4.65.01 7.1-1.4zM164.84 9.93h2.1v43.8h-2.1zM178.13 50.73q-2.7-3.57-2.7-11.13 0-8.4 2.91-12.39t9.21-4q5.76 0 8.52 3.48t2.77 10.89v2h-21.25a22.4 22.4 0 0 0 .9 7.47 7.13 7.13 0 0 0 3.24 4 13.16 13.16 0 0 0 6.42 1.29q1.56 0 3.69-.12l4-.24 1.8-.18.12 2q-7.32.48-10.32.48-6.6-.01-9.31-3.55zm18.48-13q0-6.66-2.16-9.6t-6.84-2.94q-5 0-7.5 3.06t-2.58 9.48z" class="a"/>
</svg>
