<?xml version="1.0" encoding="utf-8"?>
<!-- Generator: Adobe Illustrator 21.0.0, SVG Export Plug-In . SVG Version: 6.00 Build 0)  -->
<svg version="1.1" id="Layer_1" xmlns="http://www.w3.org/2000/svg" xmlns:xlink="http://www.w3.org/1999/xlink" x="0px" y="0px"
	 viewBox="0 0 209.2 72" style="enable-background:new 0 0 209.2 72;" xml:space="preserve">
<style type="text/css">
	.st0{display:none;fill:#C0E6ED;}
	.st1{fill:#13A8A7;}
	.st2{fill:#72CED5;}
	.st3{fill:none;}
	.st4{fill:#E9686C;}
	.st5{fill:#D6484D;}
</style>
<rect x="0.1" class="st0" width="209.1" height="72"/>
<g>
	<path class="st1" d="M59.2,39.3c0.6,0,1-0.4,1-1s-0.4-1-1-1h0c-0.6,0-1,0.4-1,1S58.6,39.3,59.2,39.3z"/>
	<path class="st1" d="M11.2,6.3c0.6,0,1-0.4,1-1s-0.4-1-1-1h0c-0.6,0-1,0.4-1,1S10.6,6.3,11.2,6.3z"/>
	<path class="st1" d="M29.2,24.3L29.2,24.3c-0.6,0-1,0.4-1,1s0.5,1,1,1c0.6,0,1-0.4,1-1S29.7,24.3,29.2,24.3z"/>
	<path class="st1" d="M46.2,25.3c0-0.6-0.4-1-1-1h0c-0.6,0-1,0.4-1,1s0.5,1,1,1C45.7,26.3,46.2,25.8,46.2,25.3z"/>
	<path class="st1" d="M37.2,9.3c0.6,0,1-0.4,1-1s-0.4-1-1-1h0c-0.6,0-1,0.4-1,1S36.6,9.3,37.2,9.3z"/>
	<g>
		<path class="st2" d="M39.9,14.3v2h11.3c0.4,1.2,1.5,2,2.9,2h5.1c0.6,0,1-0.4,1-1v-4c0-0.6-0.5-1-1-1h-5.1c-1.3,0-2.4,0.8-2.9,2
			H39.9z M53.1,15.3c0-0.6,0.5-1,1-1h4.1v2h-4.1C53.5,16.3,53.1,15.8,53.1,15.3z"/>
		<path class="st2" d="M27.4,16.3c-5.1,0-9.2,4-9.2,9s4.1,9,9.2,9h6.1v2h-6.1c-6.2,0-11.2-4.9-11.2-11s5-11,11.2-11h7.1v2H27.4z"/>
		<path class="st2" d="M54.1,41.3c0-2.8-2.3-5-5.1-5h-8.1v-2H49c3.9,0,7.1,3.1,7.1,7v10.7l-2-0.9V41.3z"/>
	</g>
	<g>
		<path class="st3" d="M36.2,16.3v-2v-2.2c0.3,0.1,0.7,0.1,1,0.1s0.7-0.1,1-0.1v2.2v2v2h-2V16.3z"/>
		<rect x="36.2" y="20.4" class="st3" width="2" height="2"/>
		<ellipse class="st3" cx="37.2" cy="8.3" rx="2" ry="2"/>
		<path class="st3" d="M29.2,23.4c1.1,0,2,0.9,2,2c0,0.6,0.4,1,1,1s1-0.4,1-1c0-0.3-0.1-0.7-0.1-1h8.3c-0.1,0.3-0.1,0.7-0.1,1
			c0,0.6,0.4,1,1,1s1-0.4,1-1c0-1.1,0.9-2,2-2s2,0.9,2,2s-0.9,2-2,2h-16c-1.1,0-2-0.9-2-2S28.1,23.4,29.2,23.4z"/>
		<path class="st1" d="M25.2,25.4c0,2.2,1.8,4,4,4h4v5v2v8.3l2-0.6v-8.6v-6h4v6v8.9l2,0.9v-8.8v-2v-5h4c2.2,0,4-1.8,4-4s-1.8-4-4-4
			c-1,0-1.9,0.4-2.6,1h-2.4v-6v-2v-3.4c0.6-0.7,1-1.6,1-2.6c0-2.2-1.8-4-4-4s-4,1.8-4,4c0,1,0.4,1.9,1,2.6v3.4v2v6h-2.4
			c-0.7-0.6-1.6-1-2.6-1C27,21.4,25.2,23.2,25.2,25.4z M39.2,8.3c0,1.1-0.9,2-2,2s-2-0.9-2-2s0.9-2,2-2S39.2,7.2,39.2,8.3z
			 M36.2,18.4v-2v-2v-2.2c0.3,0.1,0.7,0.1,1,0.1s0.7-0.1,1-0.1v2.2v2v2H36.2z M38.2,20.4v2h-2v-2H38.2z M27.2,25.4c0-1.1,0.9-2,2-2
			s2,0.9,2,2c0,0.6,0.4,1,1,1s1-0.4,1-1c0-0.3-0.1-0.7-0.1-1h8.3c-0.1,0.3-0.1,0.7-0.1,1c0,0.6,0.4,1,1,1s1-0.4,1-1c0-1.1,0.9-2,2-2
			s2,0.9,2,2s-0.9,2-2,2h-16C28.1,27.4,27.2,26.5,27.2,25.4z"/>
	</g>
	<path class="st1" d="M64.2,10.3v1c0,0.6,0.4,1,1,1s1-0.4,1-1v-1c0.6,0,1-0.4,1-1s-0.4-1-1-1v-1c0-0.6-0.4-1-1-1s-1,0.4-1,1v1
		c-0.6,0-1,0.4-1,1S63.6,10.3,64.2,10.3z"/>
	<path class="st1" d="M7.2,35.3v1c0,0.6,0.4,1,1,1s1-0.4,1-1v-1c0.6,0,1-0.4,1-1s-0.4-1-1-1v-1c0-0.6-0.4-1-1-1s-1,0.4-1,1v1
		c-0.6,0-1,0.4-1,1S6.6,35.3,7.2,35.3z"/>
	<g>
		<path class="st4" d="M35.3,45.9l-6,12.9c0,0,0,0,0,0.1c0,0.1,0,0.1-0.1,0.2c0,0.1,0,0.1,0,0.2c0,0.1,0,0.1,0,0.2
			c0,0.1,0,0.1,0.1,0.2c0,0,0,0,0,0.1l3.3,6.6H7.9l8-14.2L35.3,45.9z"/>
		<polygon class="st4" points="37.6,45.6 39.8,46.6 39.8,46.6 54.8,53.5 54.8,53.5 62.4,57 66.6,66.3 34.8,66.3 31.3,59.3 		"/>
		<path class="st5" d="M5.2,67.3c0,0,0,0.1,0,0.1c0,0.1,0,0.1,0,0.2c0,0.1,0.1,0.1,0.1,0.2c0,0.1,0.1,0.1,0.1,0.2
			c0,0.1,0.1,0.1,0.2,0.1c0,0,0.1,0.1,0.1,0.1c0,0,0,0,0.1,0c0,0,0.1,0,0.1,0c0.1,0,0.2,0.1,0.3,0.1l0,0l0,0h62l0,0l0,0c0,0,0,0,0,0
			c0.1,0,0.3,0,0.4-0.1c0,0,0,0,0,0c0,0,0.1-0.1,0.1-0.1c0.1,0,0.1-0.1,0.2-0.1c0,0,0.1-0.1,0.1-0.2c0-0.1,0.1-0.1,0.1-0.2
			c0-0.1,0-0.2,0-0.2c0,0,0-0.1,0-0.1c0,0,0,0,0,0c0-0.1,0-0.1,0-0.2c0-0.1,0-0.1,0-0.2c0,0,0,0,0,0l-5-11c0,0-0.1-0.1-0.1-0.1
			c0-0.1-0.1-0.1-0.1-0.2c-0.1-0.1-0.1-0.1-0.2-0.1c0,0-0.1-0.1-0.1-0.1l-7.4-3.4l-2-0.9l-13-6l-2-0.9l-1.6-0.7c0,0-0.1,0-0.1,0
			c-0.1,0-0.1,0-0.2-0.1c0,0,0,0,0,0c-0.1,0-0.1,0-0.2,0c-0.1,0-0.1,0-0.1,0l-1.7,0.5l-2,0.6l-18.3,5.8c0,0-0.1,0-0.1,0.1
			c-0.1,0-0.1,0.1-0.2,0.1c-0.1,0-0.1,0.1-0.2,0.2c0,0-0.1,0.1-0.1,0.1l-9,16c0,0,0,0,0,0c0,0.1,0,0.1-0.1,0.2
			C5.2,67.1,5.2,67.1,5.2,67.3C5.2,67.2,5.2,67.2,5.2,67.3z M34.8,66.3l-3.5-7l6.4-13.7l2.1,1l0,0l15,6.9l0,0l7.6,3.5l4.2,9.2H34.8z
			 M7.9,66.3l8-14.2l19.5-6.2l-6,12.9c0,0,0,0,0,0.1c0,0.1,0,0.1-0.1,0.2c0,0.1,0,0.1,0,0.2c0,0.1,0,0.1,0,0.2c0,0.1,0,0.1,0.1,0.2
			c0,0,0,0,0,0.1l3.3,6.6H7.9z"/>
	</g>
</g>
<g>
	<path class="st1" d="M82,18v19h18.8v2H82v19h-2.2V16h24.1v2H82z"/>
	<path class="st1" d="M107.9,56.3c-1.4-1.5-2.1-3.6-2.1-6.3s0.7-4.7,2-6.1c1.3-1.4,3.5-2.3,6.3-2.7l11.4-1.1v-3.1
		c0-2.5-0.5-4.3-1.6-5.5c-1-1.2-2.5-1.8-4.3-1.8c-1.8,0-3.3,0.1-4.7,0.2c-1.3,0.1-3.9,0.4-7.5,0.8l-0.2-2c4.2-0.7,7.9-1.1,11.3-1.1
		c3.1,0,5.3,0.8,6.8,2.3c1.5,1.5,2.2,3.9,2.2,7.1v17.3c0,0.6,0.5,1.1,1.3,1.6c0.8,0.5,1.9,0.8,3.2,0.9l-0.1,1.9
		c-1.3,0-2.5-0.2-3.7-0.7c-1.1-0.5-2-1.1-2.5-1.9c-4,1.8-8,2.6-12.1,2.6C111.2,58.5,109.2,57.8,107.9,56.3z M123.9,54.8l1.7-0.7
		V41.9L114.4,43c-2.2,0.2-3.8,0.8-4.8,1.8c-1,1.1-1.5,2.7-1.5,4.8c0,4.6,1.9,7,5.6,7C117.3,56.6,120.6,56,123.9,54.8z"/>
	<path class="st1" d="M140.1,58.1l-1.3-0.1V14.2h2v15.7c3.4-1.6,6.8-2.5,10.4-2.5c2.6,0,4.6,0.5,6.1,1.5c1.4,1,2.5,2.6,3.1,4.8
		c0.6,2.2,0.9,5.2,0.9,9c0,4.2-0.4,7.5-1.2,9.7c-0.8,2.2-2.3,3.8-4.3,4.6c-2.1,0.9-5.1,1.4-9,1.4C144.2,58.4,142,58.3,140.1,58.1z
		 M155,55.2c1.6-0.9,2.7-2.4,3.3-4.4c0.6-2,0.9-4.7,0.9-8.3c0-3.4-0.2-6-0.7-7.9c-0.5-1.9-1.3-3.2-2.5-4c-1.2-0.8-2.8-1.2-5-1.2
		c-2.9,0-6.3,0.8-10.1,2.4v24.5c1.1,0.1,1.9,0.1,2.3,0.1c2.6,0.2,4.1,0.2,4.7,0.2C151,56.6,153.4,56.1,155,55.2z"/>
	<path class="st1" d="M170,14.2h2.1V58H170V14.2z"/>
	<path class="st1" d="M183.3,55c-1.8-2.4-2.7-6.1-2.7-11.1c0-5.6,1-9.7,2.9-12.4c1.9-2.7,5-4,9.2-4c3.8,0,6.7,1.2,8.5,3.5
		c1.8,2.3,2.8,6,2.8,10.9v2h-21.2c0,3.2,0.3,5.7,0.9,7.5c0.6,1.8,1.7,3.2,3.2,4c1.5,0.9,3.7,1.3,6.4,1.3c1,0,2.3,0,3.7-0.1
		c1.4-0.1,2.8-0.2,4-0.2l1.8-0.2l0.1,2c-4.9,0.3-8.3,0.5-10.3,0.5C188.2,58.5,185.1,57.3,183.3,55z M201.8,41.9
		c0-4.4-0.7-7.6-2.2-9.6c-1.4-2-3.7-2.9-6.8-2.9c-3.3,0-5.8,1-7.5,3.1c-1.7,2-2.5,5.2-2.6,9.5H201.8z"/>
</g>
</svg>
